<?xml version="1.0" encoding="UTF-8"?>
<svg version="1.1" xmlns="http://www.w3.org/2000/svg" width="856" height="283">
<path d="M0 0 C8.19433737 7.73331294 10.21833605 15.84034451 10.625 26.6875 C10.6674585 27.78433105 10.70991699 28.88116211 10.75366211 30.01123047 C11.36687302 48.39275194 11.14505768 66.79872855 11.0625 85.1875 C6.12792573 82.63352759 2.61358076 79.01121067 -1.25 75.10546875 C-2.2870105 74.06777092 -2.2870105 74.06777092 -3.3449707 73.0091095 C-4.80299419 71.54807212 -6.25859371 70.08461224 -7.71191406 68.61889648 C-9.92464279 66.38796299 -12.14521666 64.1650841 -14.3671875 61.94335938 C-15.78692992 60.51869897 -17.20621587 59.0935835 -18.625 57.66796875 C-19.28346924 57.00838669 -19.94193848 56.34880463 -20.62036133 55.66923523 C-24.26943743 51.98285938 -27.64299771 48.19198261 -30.9375 44.1875 C-33.72352125 41.96910886 -36.50454232 40.06808686 -40.1875 40.375 C-40.765 40.643125 -41.3425 40.91125 -41.9375 41.1875 C-42.9275 41.5175 -43.9175 41.8475 -44.9375 42.1875 C-45.62236725 43.51157669 -46.28620203 44.84659241 -46.9375 46.1875 C-48.9375 48.4375 -48.9375 48.4375 -50.9375 50.1875 C-51.5975 50.1875 -52.2575 50.1875 -52.9375 50.1875 C-53.2675 51.1775 -53.5975 52.1675 -53.9375 53.1875 C-54.5975 53.1875 -55.2575 53.1875 -55.9375 53.1875 C-56.205625 53.826875 -56.47375 54.46625 -56.75 55.125 C-57.9375 57.1875 -57.9375 57.1875 -60.9375 58.1875 C-61.61534883 59.51518339 -62.27970775 60.84976625 -62.9375 62.1875 C-64.43077763 63.8548862 -65.98392427 65.4692833 -67.57080078 67.04785156 C-68.03926422 67.51660706 -68.50772766 67.98536255 -68.99038696 68.46832275 C-70.53316695 70.00971432 -72.08289964 71.54390873 -73.6328125 73.078125 C-74.70656192 74.14814255 -75.77986933 75.21860381 -76.85275269 76.28948975 C-79.67270452 79.10181879 -82.49861154 81.90808889 -85.32580566 84.71313477 C-88.2117137 87.57855523 -91.09194257 90.44967168 -93.97265625 93.3203125 C-99.62206489 98.94829512 -105.27777825 104.56988884 -110.9375 110.1875 C-108.64028533 113.09600588 -106.47876566 115.75670252 -103.625 118.125 C-98.73153912 122.29964741 -94.06886651 126.709713 -89.39331055 131.12475586 C-85.67630789 134.61948574 -81.89184709 137.96318622 -77.9375 141.1875 C-78.32421875 141.63480469 -78.7109375 142.08210937 -79.109375 142.54296875 C-79.63015625 143.14753906 -80.1509375 143.75210938 -80.6875 144.375 C-81.19796875 144.96667969 -81.7084375 145.55835938 -82.234375 146.16796875 C-83.47337346 147.63714812 -84.67149756 149.14109519 -85.84375 150.6640625 C-90.06886221 155.75626864 -95.59223342 160.82040551 -102 162.875 C-109.54692552 163.47396234 -114.23895461 160.99721874 -120.0625 156.3125 C-121.49863315 155.07666436 -122.93404304 153.83983325 -124.35400391 152.58544922 C-126.0516893 151.08669088 -127.76448666 149.6066729 -129.48046875 148.12890625 C-132.02160553 145.93777823 -134.55626416 143.73950789 -137.0859375 141.53515625 C-140.23474776 138.79369841 -143.39789797 136.06968546 -146.57104492 133.35644531 C-147.76332797 132.3360098 -148.95363497 131.31326043 -150.1418457 130.28808594 C-152.52356627 128.23477228 -154.9055056 126.2126348 -157.37890625 124.26953125 C-165.24241445 117.98767745 -169.76950826 109.16177869 -170.9375 99.1875 C-171.84866335 88.07130708 -167.82118896 77.99348416 -162.9375 68.1875 C-161.9475 68.1875 -160.9575 68.1875 -159.9375 68.1875 C-159.9375 68.8475 -159.9375 69.5075 -159.9375 70.1875 C-159.05433105 70.588479 -159.05433105 70.588479 -158.15332031 70.99755859 C-155.90692228 72.20392087 -154.33271664 73.4809065 -152.484375 75.2265625 C-151.865625 75.80664062 -151.246875 76.38671875 -150.609375 76.984375 C-149.97515625 77.58765625 -149.3409375 78.1909375 -148.6875 78.8125 C-148.0378125 79.42351562 -147.388125 80.03453125 -146.71875 80.6640625 C-145.12104937 82.16778074 -143.52750851 83.67565737 -141.9375 85.1875 C-141.24366211 84.49293701 -140.54982422 83.79837402 -139.83496094 83.08276367 C-137.32131867 80.56906625 -134.80132496 78.06181958 -132.28009033 75.55574036 C-129.87809847 73.16716467 -127.47879579 70.77589508 -125.07958984 68.38452148 C-123.8119157 67.12191804 -122.54335172 65.86020741 -121.27392578 64.59936523 C-119.435485 62.77300388 -117.60024903 60.94347557 -115.765625 59.11328125 C-115.19587952 58.54869705 -114.62613403 57.98411285 -114.03912354 57.40242004 C-111.12872489 54.56812421 -111.12872489 54.56812421 -108.9375 51.1875 C-108.2775 51.1875 -107.6175 51.1875 -106.9375 51.1875 C-106.66858444 50.59294006 -106.39966888 49.99838013 -106.12260437 49.38580322 C-104.93366157 47.18037993 -103.75168854 45.76528904 -101.97583008 44.01464844 C-101.07898247 43.12286896 -101.07898247 43.12286896 -100.16401672 42.21307373 C-99.19530891 41.26455536 -99.19530891 41.26455536 -98.20703125 40.296875 C-97.20406258 39.30170868 -97.20406258 39.30170868 -96.18083191 38.28643799 C-94.04191918 36.16531594 -91.8964638 34.05097832 -89.75 31.9375 C-87.62221241 29.83750293 -85.49596171 27.73600868 -83.37272644 25.63140869 C-82.05322591 24.32397456 -80.73106395 23.01921857 -79.40571594 21.7177124 C-75.59363516 17.94620198 -71.98889717 14.05334641 -68.49069214 9.98861694 C-58.62279251 -1.45442398 -48.89865659 -9.89212884 -33.2265625 -11.6875 C-20.53688882 -12.16976788 -9.74200156 -8.06734344 0 0 Z " fill="#8135EC" transform="translate(204.9375,41.8125)"/>
<path d="M0 0 C7.36321864 3.94155875 12.8095278 9.87289499 18.55078125 15.80859375 C21.56302475 18.92153225 24.72222294 21.77932057 28.02734375 24.578125 C30.75866827 26.97548844 33.26387821 29.58725932 35.8125 32.17578125 C37.77318859 34.1058938 39.79460339 35.91578648 41.87890625 37.7109375 C43.19298546 38.8549594 44.50552216 40.00075585 45.81640625 41.1484375 C46.43773437 41.68984375 47.0590625 42.23125 47.69921875 42.7890625 C54.73639478 49.30835111 58.42665897 56.80511948 58.88671875 66.42578125 C58.62409467 76.59516919 55.1458777 87.131107 48.81640625 95.1484375 C46.81640625 95.1484375 46.81640625 95.1484375 44.515625 92.9765625 C43.62488281 92.04328125 42.73414063 91.11 41.81640625 90.1484375 C40.08848841 88.39720442 38.35933401 86.64719052 36.62890625 84.8984375 C35.76910156 84.02703125 34.90929687 83.155625 34.0234375 82.2578125 C32.00209559 80.11849512 32.00209559 80.11849512 29.81640625 79.1484375 C29.81640625 78.4884375 29.81640625 77.8284375 29.81640625 77.1484375 C29.23375 76.89320313 28.65109375 76.63796875 28.05078125 76.375 C25.60252402 75.03102663 23.99897377 73.53033454 22.06640625 71.5234375 C21.4528125 70.89179688 20.83921875 70.26015625 20.20703125 69.609375 C19.748125 69.12726563 19.28921875 68.64515625 18.81640625 68.1484375 C15.53867121 68.89993773 15.53867121 68.89993773 13.81640625 72.1484375 C13.15640625 72.1484375 12.49640625 72.1484375 11.81640625 72.1484375 C11.81640625 72.8084375 11.81640625 73.4684375 11.81640625 74.1484375 C11.15640625 74.1484375 10.49640625 74.1484375 9.81640625 74.1484375 C9.81640625 74.8084375 9.81640625 75.4684375 9.81640625 76.1484375 C8.453125 77.453125 8.453125 77.453125 6.50390625 79.0234375 C2.22235672 82.6498033 -1.498617 86.62925133 -5.23754883 90.79638672 C-8.12895625 94.01777158 -11.1193947 97.0920027 -14.18359375 100.1484375 C-15.3257662 101.30902302 -16.4664451 102.47107951 -17.60595703 103.63427734 C-21.07931659 107.17940955 -24.56531575 110.71183168 -28.05566406 114.24023438 C-29.55053192 115.75518932 -31.04178646 117.2737187 -32.52929688 118.79589844 C-56.17194247 142.97349298 -56.17194247 142.97349298 -74.49609375 143.5234375 C-86.03486324 143.19801979 -95.39893068 140.20747736 -105.18359375 134.1484375 C-103.96861496 130.50350113 -102.6893272 129.76774316 -99.6567688 127.48242188 C-94.61871484 123.55802698 -90.10153866 119.33817121 -85.61279297 114.8046875 C-84.82129349 114.01348007 -84.02979401 113.22227264 -83.21430969 112.40708923 C-80.63418966 109.82559079 -78.06120049 107.2371111 -75.48828125 104.6484375 C-73.68697248 102.84339331 -71.88521773 101.03879408 -70.08303833 99.23461914 C-65.84744265 94.99220238 -61.61632591 90.74536957 -57.38741314 86.49629498 C-52.56661544 81.65302131 -47.74003124 76.81553144 -42.91299033 71.97848129 C-32.99681124 62.04148468 -23.08779768 52.0973688 -13.18359375 42.1484375 C-14.59899205 39.1995011 -15.95858599 37.12582878 -18.30859375 34.8359375 C-18.92347656 34.23523438 -19.53835937 33.63453125 -20.171875 33.015625 C-22.86100093 30.5196984 -25.65203276 28.15575392 -28.484375 25.82421875 C-30.28948455 24.04400726 -31.1111275 22.4225581 -32.18359375 20.1484375 C-29.1084825 17.01525471 -26.02214536 13.89336772 -22.93359375 10.7734375 C-21.62455078 9.43925781 -21.62455078 9.43925781 -20.2890625 8.078125 C-19.44472656 7.22734375 -18.60039062 6.3765625 -17.73046875 5.5 C-16.95541992 4.71447754 -16.18037109 3.92895508 -15.38183594 3.11962891 C-10.70736866 -1.07202467 -6.09102513 -2.37539084 0 0 Z " fill="#415FE5" transform="translate(184.18359375,114.8515625)"/>
<path d="M0 0 C11.65614537 11.93367264 12.96411722 25.7769154 12.79296875 41.8046875 C12.625 45.6875 12.625 45.6875 11.625 51.6875 C-7.845 51.6875 -27.315 51.6875 -47.375 51.6875 C-45.06359937 64.32645144 -45.06359937 64.32645144 -37.6875 72.9375 C-25.79466212 79.22050869 -12.87257767 76.71469103 -0.375 73.6875 C1.63346595 73.04679027 3.63688926 72.38882741 5.625 71.6875 C6.80208468 76.24870312 7.14250695 81.00362353 6.625 85.6875 C3.14112378 90.91331433 -3.4893687 91.29588653 -9.375 92.6875 C-12.38833556 93.2530799 -15.31329485 93.56264323 -18.375 93.6875 C-19.24640625 93.72746094 -20.1178125 93.76742187 -21.015625 93.80859375 C-33.01016911 94.09338041 -43.35526945 91.34746359 -53.375 84.6875 C-64.71888598 73.24001689 -66.3639062 58.11656561 -66.625 42.625 C-66.32807028 27.13225525 -63.94827629 13.27142749 -52.82421875 1.81640625 C-39.16537092 -10.05611698 -14.50485043 -11.12650552 0 0 Z M-42.25 15.25 C-46.84841891 21.51912475 -47.375 29.19384856 -47.375 36.6875 C-33.185 36.6875 -18.995 36.6875 -4.375 36.6875 C-5.00344574 23.03659212 -5.00344574 23.03659212 -11.75 12.25 C-22.01848482 6.13780666 -33.39293388 7.35565846 -42.25 15.25 Z " fill="#FEFEFE" transform="translate(461.375,98.3125)"/>
<path d="M0 0 C32.24873844 -0.61296441 32.24873844 -0.61296441 41.67578125 7.4296875 C50.28780021 16.36225307 50.6025687 28.03091735 50.609375 39.73828125 C50.6243973 41.2327805 50.64113275 42.7272634 50.65948486 44.22172546 C50.70283813 48.12375716 50.72307625 52.02556595 50.73822021 55.92779541 C50.75783175 59.89796207 50.79988106 63.86788603 50.83984375 67.83789062 C50.93627075 77.89173227 51.00690265 87.9456337 51 98 C46.15479581 99.29205445 40.97959436 99.51999304 36 99 C35.01 98.01 35.01 98.01 34 97 C34 95.68 34 94.36 34 93 C33.23816406 93.40992188 32.47632813 93.81984375 31.69140625 94.2421875 C19.9241167 100.38292037 8.45763149 103.23865424 -4.7421875 99.80859375 C-14.46112152 96.32793745 -19.55517226 90.78274702 -24.1328125 81.76953125 C-26.50980502 74.17814523 -26.42074165 63.20018426 -23.4375 55.8125 C-18.86539812 47.68785902 -12.7748872 43.73388445 -4 41 C-3.4443335 40.82202881 -2.88866699 40.64405762 -2.31616211 40.46069336 C0.93995184 39.81304004 4.0721831 39.88917533 7.390625 39.90234375 C8.44754547 39.90446617 8.44754547 39.90446617 9.52581787 39.90663147 C11.76725584 39.91221067 14.00859243 39.92475927 16.25 39.9375 C17.77343605 39.94251769 19.29687368 39.94708013 20.8203125 39.95117188 C24.54690772 39.96217326 28.27344396 39.97942354 32 40 C31.88065321 37.74556736 31.74948593 35.49175823 31.61328125 33.23828125 C31.50560425 31.35556519 31.50560425 31.35556519 31.39575195 29.43481445 C30.88659824 25.01576227 30.1160324 23.1160324 27 20 C24.87880872 19.04768403 24.87880872 19.04768403 23 19 C23 18.34 23 17.68 23 17 C9.56486474 16.35853466 -2.86347133 18.2432902 -16 21 C-16.80263256 17.49243253 -17.11043577 14.28268248 -17.0625 10.6875 C-17.05347656 9.80449219 -17.04445313 8.92148438 -17.03515625 8.01171875 C-17.02355469 7.34785156 -17.01195312 6.68398437 -17 6 C-11.00514147 3.39845762 -6.67044212 1.8741426 0 2 C0 1.34 0 0.68 0 0 Z M-4.9375 60.0625 C-7.74841028 65.18827756 -7.34485192 69.99985885 -6.375 75.625 C-4.58738859 80.01277347 -2.89684683 81.35014415 1 84 C10.73585959 87.20472045 20.55997708 84.38597497 29.5625 80.4375 C32.71382413 77.28617587 32.85986848 75.23377071 33.0546875 70.8828125 C32.96007281 65.89526657 32.55350809 60.95602628 32 56 C26.26967165 54.05619798 21.09383701 53.63404927 15.0625 53.625 C14.20720703 53.60050781 13.35191406 53.57601562 12.47070312 53.55078125 C5.63103806 53.51947844 -0.13292508 54.94795251 -4.9375 60.0625 Z " fill="#FDFDFD" transform="translate(780,91)"/>
<path d="M0 0 C0.79422363 -0.00950684 1.58844727 -0.01901367 2.40673828 -0.02880859 C6.30230803 -0.00625222 8.25122698 0.04248465 11.5625 2.25 C13.14205728 2.98731083 14.72583313 3.71561585 16.3125 4.4375 C26.62365685 9.64545731 31.34833499 17.73126623 35.5625 28.25 C37.9650889 35.72916166 37.89581792 43.2724352 37.875 51.0625 C37.89111328 52.25681641 37.90722656 53.45113281 37.92382812 54.68164062 C37.93058678 67.0972904 35.65811165 76.99447597 28.5625 87.25 C27.94375 88.178125 27.325 89.10625 26.6875 90.0625 C18.59430048 98.3937348 7.26870904 101.16075876 -4 101.5 C-15.37054157 101.34520302 -25.72204403 98.86382234 -34.4375 91.25 C-46.27973168 77.44508933 -47.46490993 58.62758946 -46.4375 41.25 C-45.16021787 28.79435618 -41.23373633 16.58037615 -31.4375 8.25 C-21.24296261 1.77042115 -11.82015108 0.11920659 0 0 Z M-20.1875 21.4375 C-28.52328346 31.85722933 -29.60860643 45.24492182 -28.23095703 58.19091797 C-27.15614321 66.74269753 -25.71048695 74.87043317 -19.4375 81.25 C-12.7620697 85.60946469 -4.76767832 86.34891663 2.96875 84.75390625 C8.7971517 83.03452775 12.55087379 80.67317409 15.71484375 75.2890625 C19.72576139 67.6097967 19.74528719 61.02894996 19.75 52.4375 C19.76836914 50.69243164 19.76836914 50.69243164 19.78710938 48.91210938 C19.79728036 42.95530037 19.65239759 37.84793998 17.5625 32.25 C17.29050781 31.51652344 17.01851562 30.78304687 16.73828125 30.02734375 C13.83648699 23.8429768 9.89872665 19.88104414 3.75 16.875 C-5.07633545 15.14434599 -13.00990423 15.72804882 -20.1875 21.4375 Z " fill="#FDFDFD" transform="translate(617.4375,90.75)"/>
<path d="M0 0 C7.22299196 6.2699583 9.87569686 14.76128456 11 24 C11.08235691 26.3444809 11.11789396 28.69094233 11.11352539 31.03686523 C11.11367142 31.70113022 11.11381744 32.3653952 11.1139679 33.04978943 C11.11327785 35.21942549 11.10552854 37.38897291 11.09765625 39.55859375 C11.09578884 41.07316542 11.09436646 42.58773769 11.09336853 44.10231018 C11.0895688 48.06918027 11.07976051 52.03601316 11.06866455 56.00286865 C11.05839546 60.05854794 11.05385918 64.1142333 11.04882812 68.16992188 C11.03813573 76.11329823 11.02109021 84.05664447 11 92 C6.45332351 92.58870498 2.0928426 93.12628948 -2.5 93.0625 C-3.3559375 93.05347656 -4.211875 93.04445313 -5.09375 93.03515625 C-6.03734375 93.01775391 -6.03734375 93.01775391 -7 93 C-8.30966346 90.38067307 -8.10581174 88.48018591 -8.08178711 85.54736328 C-8.0752562 84.40502228 -8.06872528 83.26268127 -8.06199646 82.08572388 C-8.05056107 80.84313812 -8.03912567 79.60055237 -8.02734375 78.3203125 C-8.01793047 76.36639965 -8.00852976 74.41248665 -7.99983311 72.45857048 C-7.97694792 67.63995802 -7.94370235 62.82143129 -7.90405273 58.00292969 C-7.88226265 55.30540945 -7.86608836 52.60795763 -7.85560608 49.91036987 C-7.84536489 47.37477768 -7.82697578 44.83920062 -7.79905701 42.30374146 C-7.39362812 28.65245652 -7.39362812 28.65245652 -12.3125 16.375 C-16.96305823 12.26520435 -21.8387778 11.10442749 -28 11 C-34.44957428 11.50769244 -39.90156199 13.04291425 -45.5390625 16.1953125 C-50.30796824 22.08631371 -48.12467567 34.13019355 -48.09765625 41.4375 C-48.09578823 42.92822217 -48.09436614 44.41894496 -48.09336853 45.90966797 C-48.08957356 49.80912 -48.0797695 53.70853404 -48.06866455 57.60797119 C-48.05838507 61.59671515 -48.05385698 65.58546533 -48.04882812 69.57421875 C-48.03814415 77.38283172 -48.02057225 85.19140567 -48 93 C-53.61 92.67 -59.22 92.34 -65 92 C-65.495 92.99 -65.495 92.99 -66 94 C-68.14055783 91.85944217 -67.18641186 86.95051636 -67.20532227 83.98217773 C-67.21522186 83.03593536 -67.22512146 82.08969299 -67.23532104 81.11477661 C-67.26703803 77.97107489 -67.29173361 74.82735802 -67.31640625 71.68359375 C-67.33696698 69.51025488 -67.35796321 67.33692009 -67.37937927 65.16358948 C-67.43469095 59.43103326 -67.48405997 53.69844042 -67.53222656 47.96582031 C-67.58237535 42.12106042 -67.6380959 36.276354 -67.69335938 30.43164062 C-67.80105215 18.95447098 -67.90195768 7.47725615 -68 -4 C-62.06 -4 -56.12 -4 -50 -4 C-50 -2.02 -50 -0.04 -50 2 C-49.17757813 1.59007813 -48.35515625 1.18015625 -47.5078125 0.7578125 C-32.65173525 -6.41290377 -14.67878671 -10.09166586 0 0 Z " fill="#F6F6F6" transform="translate(367,97)"/>
<path d="M0 0 C0.99 0 1.98 0 3 0 C3 0.66 3 1.32 3 2 C3.8815979 2.39723267 3.8815979 2.39723267 4.78100586 2.80249023 C7.0736135 4.03972651 8.63663896 5.35313177 10.50390625 7.16015625 C11.48266724 8.09637817 11.48266724 8.09637817 12.48120117 9.05151367 C13.16802979 9.71513916 13.8548584 10.37876465 14.5625 11.0625 C19.96356463 16.21022796 25.43804475 21.10359582 31.28125 25.75 C34.53568092 28.44332214 37.60764797 31.29815428 40.6875 34.1875 C44.65734748 37.9083675 48.63891457 41.35570422 53.0625 44.53515625 C60.2864555 49.99681615 66.72480402 56.58887954 73.36474609 62.74169922 C77.16681772 66.25630549 81.02933576 69.67572296 85 73 C84.61328125 73.44730469 84.2265625 73.89460938 83.828125 74.35546875 C83.30734375 74.96003906 82.7865625 75.56460938 82.25 76.1875 C81.73953125 76.77917969 81.2290625 77.37085938 80.703125 77.98046875 C79.46412654 79.44964812 78.26600244 80.95359519 77.09375 82.4765625 C72.86863779 87.56876864 67.34526658 92.63290551 60.9375 94.6875 C53.39057448 95.28646234 48.69854539 92.80971874 42.875 88.125 C41.43886685 86.88916436 40.00345696 85.65233325 38.58349609 84.39794922 C36.8858107 82.89919088 35.17301334 81.4191729 33.45703125 79.94140625 C30.91589447 77.75027823 28.38123584 75.55200789 25.8515625 73.34765625 C22.70275224 70.60619841 19.53960203 67.88218546 16.36645508 65.16894531 C15.17417203 64.1485098 13.98386503 63.12576043 12.7956543 62.10058594 C10.41393373 60.04727228 8.0319944 58.0251348 5.55859375 56.08203125 C-2.30491445 49.80017745 -6.83200826 40.97427869 -8 31 C-8.91116335 19.88380708 -4.88368896 9.80598416 0 0 Z " fill="#DB4ED6" transform="translate(42,110)"/>
<path d="M0 0 C7.36321864 3.94155875 12.8095278 9.87289499 18.55078125 15.80859375 C21.56302475 18.92153225 24.72222294 21.77932057 28.02734375 24.578125 C30.75866827 26.97548844 33.26387821 29.58725932 35.8125 32.17578125 C37.77318859 34.1058938 39.79460339 35.91578648 41.87890625 37.7109375 C43.19298546 38.8549594 44.50552216 40.00075585 45.81640625 41.1484375 C46.43773437 41.68984375 47.0590625 42.23125 47.69921875 42.7890625 C54.73639478 49.30835111 58.42665897 56.80511948 58.88671875 66.42578125 C58.62409467 76.59516919 55.1458777 87.131107 48.81640625 95.1484375 C46.81640625 95.1484375 46.81640625 95.1484375 44.515625 92.9765625 C43.62488281 92.04328125 42.73414063 91.11 41.81640625 90.1484375 C40.08848841 88.39720442 38.35933401 86.64719052 36.62890625 84.8984375 C35.76910156 84.02703125 34.90929687 83.155625 34.0234375 82.2578125 C32.00209559 80.11849512 32.00209559 80.11849512 29.81640625 79.1484375 C29.81640625 78.4884375 29.81640625 77.8284375 29.81640625 77.1484375 C28.92453613 76.74661255 28.92453613 76.74661255 28.01464844 76.33666992 C25.79400868 75.13633077 24.39204555 73.94140752 22.64453125 72.13671875 C22.06670898 71.54721436 21.48888672 70.95770996 20.89355469 70.3503418 C20.2905957 69.72683838 19.68763672 69.10333496 19.06640625 68.4609375 C14.75576568 64.0754209 10.4493276 59.78299601 5.7578125 55.80078125 C3.300548 53.70938712 0.90317401 51.55605239 -1.49609375 49.3984375 C-2.31722656 48.66109375 -3.13835937 47.92375 -3.984375 47.1640625 C-6.18359375 45.1484375 -6.18359375 45.1484375 -7.7890625 43.3828125 C-9.24759796 41.81703743 -9.24759796 41.81703743 -12.18359375 42.1484375 C-13.55078125 40.8203125 -13.55078125 40.8203125 -15.05859375 38.8984375 C-20.19413775 32.73134795 -26.23754967 27.51328931 -32.18359375 22.1484375 C-30.74106356 18.84951383 -28.94484714 16.65252089 -26.41015625 14.109375 C-25.66765625 13.36429688 -24.92515625 12.61921875 -24.16015625 11.8515625 C-23.38414062 11.08328125 -22.608125 10.315 -21.80859375 9.5234375 C-21.0403125 8.74742188 -20.27203125 7.97140625 -19.48046875 7.171875 C-18.73539063 6.429375 -17.9903125 5.686875 -17.22265625 4.921875 C-16.20486084 3.90746338 -16.20486084 3.90746338 -15.16650391 2.87255859 C-10.54311089 -1.14743666 -5.906247 -2.30333067 0 0 Z " fill="#43C4CC" transform="translate(184.18359375,114.8515625)"/>
<path d="M0 0 C3 0 3 0 6 1 C9.55571405 0.95247527 13.10002289 0.80515144 16.65234375 0.64453125 C20 1 20 1 22.109375 2.4765625 C24.7695646 6.02714614 27.05111007 9.74854336 29.3125 13.5625 C30.2829208 15.17894612 31.25427444 16.79483259 32.2265625 18.41015625 C32.69739258 19.19406738 33.16822266 19.97797852 33.65332031 20.78564453 C35.96742347 24.59074163 38.40508619 28.31263666 40.85546875 32.03125 C42 34 42 34 42 36 C44.0337562 34.2567804 45.10308632 32.79382736 46.3125 30.375 C48.50783192 25.98433617 51.23233769 22.04616249 54 18 C56.68243446 14.1107012 56.68243446 14.1107012 59 10 C59.33 9.34 59.66 8.68 60 8 C60.46921875 6.98679687 60.9384375 5.97359375 61.421875 4.9296875 C64.27634141 1.68597567 64.70740746 1.54920885 68.765625 1.1953125 C70.5931327 1.14234126 72.42173194 1.1198788 74.25 1.125 C75.65378906 1.0940625 75.65378906 1.0940625 77.0859375 1.0625 C79.39151439 1.01544741 81.69404162 0.99555325 84 1 C84 4.68464748 82.99656436 5.93384759 81 9 C80.443125 9.86625 79.88625 10.7325 79.3125 11.625 C77.37386599 14.51590504 75.31231139 17.30963752 73.25 20.11328125 C68.94768162 26.00103189 64.95295165 32.06160375 61 38.1875 C60.32066406 39.23486328 59.64132812 40.28222656 58.94140625 41.36132812 C57.29155757 43.90581306 55.64446912 46.45203642 54 49 C57.06071107 54.77621678 60.35531673 60.11344602 64.3125 65.3125 C68.42122318 70.80737336 72.31569433 76.38997394 76.07421875 82.1328125 C78.75876015 86.12967535 81.63397327 89.97584914 84.53125 93.8203125 C86 96 86 96 86 98 C83.0837882 98.22201613 80.16792256 98.42808498 77.25 98.625 C76.425 98.68945312 75.6 98.75390625 74.75 98.8203125 C73.95078125 98.871875 73.1515625 98.9234375 72.328125 98.9765625 C71.22839355 99.05511475 71.22839355 99.05511475 70.10644531 99.13525391 C67.56734907 98.97221968 66.13593265 98.37408897 64 97 C62.69482422 95.46630859 62.69482422 95.46630859 61.5546875 93.6484375 C60.90560425 92.62931274 60.90560425 92.62931274 60.2434082 91.58959961 C59.7918335 90.85878174 59.34025879 90.12796387 58.875 89.375 C58.40215576 88.62677979 57.92931152 87.87855957 57.44213867 87.10766602 C55.9518296 84.74431661 54.47546074 82.37264153 53 80 C52.02023126 78.43836268 51.03977695 76.87715525 50.05859375 75.31640625 C47.69480323 71.55099597 45.34395607 67.77778602 43 64 C37.29734475 71.9808764 32.02151123 80.18501019 26.81054688 88.4921875 C26.21693359 89.43320313 25.62332031 90.37421875 25.01171875 91.34375 C24.48022217 92.19130859 23.94872559 93.03886719 23.40112305 93.91210938 C22 96 22 96 20 98 C17.93701172 98.31884766 17.93701172 98.31884766 15.4296875 98.4140625 C14.53378906 98.45273438 13.63789063 98.49140625 12.71484375 98.53125 C11.77769531 98.5621875 10.84054687 98.593125 9.875 98.625 C8.93011719 98.66367188 7.98523438 98.70234375 7.01171875 98.7421875 C4.67467625 98.83661346 2.33764499 98.92218394 0 99 C0.90196757 94.66020037 3.16138391 91.56521829 5.6875 88 C6.16719238 87.31301025 6.64688477 86.62602051 7.14111328 85.91821289 C8.18991572 84.41775468 9.24147678 82.91922193 10.29541016 81.42236328 C12.09279864 78.86812546 13.88115615 76.30773967 15.66796875 73.74609375 C18.05438568 70.32738371 20.44258527 66.90995291 22.8359375 63.49609375 C23.36799805 62.73022949 23.90005859 61.96436523 24.44824219 61.17529297 C25.4512988 59.76918309 26.48690737 58.38549668 27.55957031 57.03173828 C30.29762004 53.71855559 30.29762004 53.71855559 30.8293457 49.62646484 C29.87086408 46.5910379 28.53611075 44.3917599 26.75390625 41.75390625 C25.75170044 40.25984253 25.75170044 40.25984253 24.72924805 38.7355957 C24.01422119 37.68847412 23.29919434 36.64135254 22.5625 35.5625 C21.83909424 34.4902417 21.11568848 33.4179834 20.37036133 32.31323242 C15.66406684 25.36314791 10.87048876 18.48371525 5.91796875 11.70703125 C4 9 4 9 2.36328125 6.26171875 C1.06786764 3.90749011 1.06786764 3.90749011 -1 2 C-0.67 1.34 -0.34 0.68 0 0 Z " fill="#FCFCFC" transform="translate(480,91)"/>
<path d="M0 0 C0.66 0.33 1.32 0.66 2 1 C3.3532146 0.85807087 4.70098446 0.66202571 6.04296875 0.4375 C11.66834054 -0.16346109 16.77611266 -0.45514914 22 2 C28.07918808 8.17728059 31.74868302 16.29368658 35.50341797 24.01220703 C37.42936841 27.85719586 39.64568297 31.40471587 42 35 C45.94537119 30.43018157 48.88374087 25.36859695 51.9375 20.1875 C53.46914311 17.60393596 55.0021517 15.02208969 56.55737305 12.45263672 C57.49291259 10.86210866 58.38343402 9.24389179 59.21801758 7.59814453 C60.34278911 5.48442646 61.34698838 3.73309433 63 2 C66.10628335 1.3562107 67.79422648 1.1996168 70.8125 1.5 C71.50537109 1.53609375 72.19824219 1.5721875 72.91210938 1.609375 C74.61048102 1.70307826 76.30597857 1.84657919 78 2 C78.33 1.34 78.66 0.68 79 0 C79 0.66 79 1.32 79 2 C80.32 2 81.64 2 83 2 C83 1.34 83 0.68 83 0 C83.99 0.495 83.99 0.495 85 1 C83.10270182 3.84594727 81.20540365 6.69189453 79.30810547 9.5378418 C78.91089294 10.13366058 78.51368042 10.72947937 78.10443115 11.34335327 C76.87817383 13.18273926 76.87817383 13.18273926 75.6519165 15.02212524 C75.24616394 15.63075409 74.84041138 16.23938293 74.42236328 16.86645508 C74.01349884 17.47975174 73.6046344 18.0930484 73.18338013 18.72492981 C72.56666946 19.6499958 72.56666946 19.6499958 71.9375 20.59375 C70.68359375 22.47460938 70.68359375 22.47460938 69.4296875 24.35546875 C69.02298828 24.96551758 68.61628906 25.57556641 68.19726562 26.20410156 C61.81347656 35.77978516 61.81347656 35.77978516 55.4296875 45.35546875 C54.95772949 46.06340576 54.48577148 46.77134277 53.99951172 47.50073242 C53.66967285 47.99549072 53.33983398 48.49024902 53 49 C59.27829524 59.54523 59.27829524 59.54523 67 69 C67.98080178 70.50644106 68.9347144 72.03044262 69.875 73.5625 C74.92248572 81.59989764 80.48343041 89.28060992 86 97 C82.55936813 100.44063187 77.45631954 99.68080579 72.81054688 99.6953125 C69.21938155 99.56347403 66.71348609 99.43181622 63.60546875 97.55078125 C61.72577077 95.14970718 60.40111713 92.71138877 59 90 C57.78178246 88.0165389 56.52727981 86.0584489 55.27294922 84.09765625 C53.95369699 82.02544142 52.66293624 79.93793585 51.37890625 77.84375 C48.69749397 73.48685549 45.88623583 69.22375975 43 65 C40.06093962 67.7671855 37.85596554 70.53504214 35.72265625 73.95703125 C35.12646484 74.90513672 34.53027344 75.85324219 33.91601562 76.83007812 C33.30435547 77.81427734 32.69269531 78.79847656 32.0625 79.8125 C30.26184274 82.69393351 28.45753907 85.57092292 26.6184082 88.42797852 C25.01295883 90.90719904 25.01295883 90.90719904 23.82495117 93.22631836 C22.734375 95.140625 22.734375 95.140625 20 98 C16.38429197 98.96421381 12.91290561 98.98003317 9.1875 98.9375 C8.20845703 98.95361328 7.22941406 98.96972656 6.22070312 98.98632812 C3.81237466 99.02157196 1.40833029 99.02512985 -1 99 C0.27881713 96.33253318 1.6713909 93.89159979 3.35546875 91.4609375 C3.80913818 90.80359619 4.26280762 90.14625488 4.73022461 89.46899414 C5.21112549 88.77797607 5.69202637 88.08695801 6.1875 87.375 C6.68580322 86.65497803 7.18410645 85.93495605 7.69750977 85.19311523 C9.12884697 83.12676286 10.5637271 81.06292363 12 79 C12.92039062 77.67548828 12.92039062 77.67548828 13.859375 76.32421875 C14.38015625 75.57785156 14.9009375 74.83148438 15.4375 74.0625 C15.96214844 73.30582031 16.48679687 72.54914063 17.02734375 71.76953125 C18.69601194 69.4267872 20.40246787 67.12426539 22.12890625 64.82421875 C22.68328369 64.07197021 23.23766113 63.31972168 23.80883789 62.54467773 C24.91762315 61.04020645 26.04013049 59.54573147 27.17749023 58.06274414 C27.68610596 57.36656982 28.19472168 56.67039551 28.71875 55.953125 C29.18216797 55.33598633 29.64558594 54.71884766 30.12304688 54.08300781 C31.40812158 51.03059762 30.88618398 49.15444373 30 46 C28.48504684 43.38885391 28.48504684 43.38885391 26.48046875 40.921875 C23.43643624 36.9120324 20.49918718 32.87201533 17.67578125 28.703125 C16.95712891 27.64222656 16.23847656 26.58132812 15.49804688 25.48828125 C14.77681641 24.41964844 14.05558594 23.35101563 13.3125 22.25 C11.85103926 20.08801498 10.38882 17.92654247 8.92578125 15.765625 C7.91185303 14.26418945 7.91185303 14.26418945 6.87744141 12.73242188 C5.29038608 10.42262691 3.65550381 8.16782423 1.98046875 5.921875 C0 3 0 3 0 0 Z " fill="#FDFDFD" transform="translate(661,91)"/>
<path d="M0 0 C2 0 2 0 4.3125 2.0625 C11.99148296 10.45580696 14.28218574 17.33972143 14.625 28.6875 C14.68192017 30.31244385 14.68192017 30.31244385 14.73999023 31.97021484 C15.28886947 50.30352797 15.08233444 68.66095396 15 87 C10.06542573 84.44602759 6.55108076 80.82371067 2.6875 76.91796875 C1.99615967 76.2261702 1.30481934 75.53437164 0.5925293 74.8216095 C-0.86549419 73.36057212 -2.32109371 71.89711224 -3.77441406 70.43139648 C-5.98714279 68.20046299 -8.20771666 65.9775841 -10.4296875 63.75585938 C-11.84942992 62.33119897 -13.26871587 60.9060835 -14.6875 59.48046875 C-15.67520386 58.49109566 -15.67520386 58.49109566 -16.68286133 57.48173523 C-20.33180859 53.79548953 -23.7094769 50.00779826 -27 46 C-30.29897507 43.27104222 -33.05668267 41.9313951 -37.4375 42.25 C-38.283125 42.4975 -39.12875 42.745 -40 43 C-39.31421875 42.32453125 -38.6284375 41.6490625 -37.921875 40.953125 C-34.60598849 37.63723849 -31.43757566 34.18853587 -28.25 30.75 C-21.85851499 23.87521321 -15.28023348 17.21415922 -8.54785156 10.67285156 C-5.10228143 7.28598494 -2.39884139 4.23083327 0 0 Z " fill="#5241CD" transform="translate(201,40)"/>
<path d="M0 0 C0.33 0.99 0.66 1.98 1 3 C-0.2065625 3.8971875 -0.2065625 3.8971875 -1.4375 4.8125 C-6.33410275 8.87366342 -10.06674527 14.03782334 -14 19 C-17.03083353 22.82182626 -20.05808436 26.07171981 -24 29 C-21.55732376 35.05117523 -15.81320877 38.8370981 -11 43 C-10.07316406 43.81339844 -9.14632812 44.62679687 -8.19140625 45.46484375 C-6.89009766 46.56505859 -6.89009766 46.56505859 -5.5625 47.6875 C-4.78003906 48.35136719 -3.99757813 49.01523438 -3.19140625 49.69921875 C-1.14581537 51.15784419 -1.14581537 51.15784419 0.9453125 51.03515625 C3.98322873 49.50464712 6.12475128 47.1868164 8.4375 44.75 C8.90220703 44.27175781 9.36691406 43.79351562 9.84570312 43.30078125 C11.2346079 41.87119725 12.61733414 40.43561902 14 39 C18.5460441 34.42153048 18.5460441 34.42153048 20.75 32.375 C22.25659086 30.90383382 22.25659086 30.90383382 23 28 C24.31647119 27.30062468 25.65022151 26.63270867 27 26 C27.33 25.34 27.66 24.68 28 24 C28.66 24 29.32 24 30 24 C30 23.34 30 22.68 30 22 C32 20.375 32 20.375 34 19 C34.66 19.33 35.32 19.66 36 20 C24.45 31.55 12.9 43.1 1 55 C-3.45073431 52.03284379 -6.86998543 49.42169181 -10.6875 45.8125 C-15.59490338 41.20072333 -20.67225158 36.98064286 -26.015625 32.875 C-26.67046875 32.25625 -27.3253125 31.6375 -28 31 C-28 28 -28 28 -25.8449707 25.6574707 C-24.90613037 24.78050537 -23.96729004 23.90354004 -23 23 C-21.67391724 21.67391724 -21.67391724 21.67391724 -20.32104492 20.32104492 C-13.54736328 13.54736328 -6.77368164 6.77368164 0 0 Z " fill="#6331C8" transform="translate(92,98)"/>
<path d="M0 0 C3.30609569 1.2363705 5.34338705 3.15657853 7.75 5.6875 C12.42084606 10.47921823 17.42503013 14.79460458 22.50390625 19.14453125 C23.32761719 19.85996094 24.15132813 20.57539063 25 21.3125 C26.1446875 22.29669922 26.1446875 22.29669922 27.3125 23.30078125 C29 25 29 25 29 27 C27.68 27 26.36 27 25 27 C24.90589844 26.40574219 24.81179687 25.81148437 24.71484375 25.19921875 C23.83314374 22.48666626 22.76101889 21.6040496 20.5625 19.8125 C16.39985554 16.3523485 12.44047979 12.7179581 8.4921875 9.015625 C5.81216191 6.84808079 3.12598004 5.43160825 0 4 C-0.7425 4.763125 -1.485 5.52625 -2.25 6.3125 C-5 9 -5 9 -7.25 10.625 C-9.29712875 11.97372834 -9.29712875 11.97372834 -10 15 C-10.99 15.33 -11.98 15.66 -13 16 C-14.00642948 17.32848691 -15.00692179 18.66150329 -16 20 C-16.66 20 -17.32 20 -18 20 C-18 20.99 -18 21.98 -18 23 C-19.99330842 24.34331654 -21.99384866 25.67594012 -24 27 C-24.350625 27.70125 -24.70125 28.4025 -25.0625 29.125 C-25.5265625 30.053125 -25.5265625 30.053125 -26 31 C-26.7425 31.2475 -27.485 31.495 -28.25 31.75 C-31.87981179 33.39991445 -33.19112184 35.74818413 -35.44140625 38.95703125 C-37.63449645 41.83168331 -40.13235386 43.81512675 -43 46 C-43.495 44.515 -43.495 44.515 -44 43 C-38.56136274 37.53821491 -33.12004272 32.07911513 -27.67526436 26.62345219 C-25.14725063 24.09021499 -22.62017755 21.55605394 -20.09521484 19.01977539 C-17.19383787 16.10547687 -14.2884448 13.19521216 -11.3828125 10.28515625 C-10.47443634 9.3716188 -9.56606018 8.45808136 -8.63015747 7.51686096 C-7.78943695 6.67606491 -6.94871643 5.83526886 -6.08251953 4.96899414 C-5.34083527 4.22508926 -4.599151 3.48118439 -3.83499146 2.71473694 C-2 1 -2 1 0 0 Z " fill="#4355D2" transform="translate(173,156)"/>
<path d="M0 0 C0.56054688 1.89306641 0.56054688 1.89306641 1 4 C0.03125 5.7109375 0.03125 5.7109375 -1.5 7.375 C-2.05042969 7.97441406 -2.60085937 8.57382813 -3.16796875 9.19140625 C-5.52673218 11.5199936 -8.00183751 13.6593172 -10.58203125 15.73828125 C-12.1369442 16.96479293 -12.1369442 16.96479293 -13 19 C-13.680625 19.37125 -14.36125 19.7425 -15.0625 20.125 C-20.18042264 23.39175913 -24.63715762 27.71237172 -27.75 32.9375 C-29 35 -29 35 -30.9375 35.5 C-31.9584375 35.7475 -31.9584375 35.7475 -33 36 C-35.24850483 38.47661498 -35.24850483 38.47661498 -37 41 C-34.36 41.66 -31.72 42.32 -29 43 C-28.67 44.32 -28.34 45.64 -28 47 C-32.8274799 45.58707905 -36.7162359 43.57025846 -41 41 C-39.81662431 37.44987294 -38.87661285 36.95038098 -35.9140625 34.78125 C-28.09611561 28.6984584 -21.32404829 21.53663439 -14.375 14.5 C-12.97573107 13.09067838 -11.57599494 11.68182047 -10.17578125 10.2734375 C-6.77844702 6.85427776 -3.38748723 3.42891464 0 0 Z " fill="#4B69DF" transform="translate(120,208)"/>
<path d="M0 0 C0.99 0 1.98 0 3 0 C3 0.66 3 1.32 3 2 C3.61875 2.268125 4.2375 2.53625 4.875 2.8125 C7 4 7 4 9 7 C7.39125 6.5978125 7.39125 6.5978125 5.75 6.1875 C1.97994068 5.56695075 1.97994068 5.56695075 -0.25 7.9375 C-4.47574687 15.33255703 -5.35177365 19.76213246 -4.12890625 28.16796875 C-3.98543437 31.32000248 -4.63682838 33.18620801 -6 36 C-6.33 36 -6.66 36 -7 36 C-10.19454038 23.22183846 -5.66720618 11.3792124 0 0 Z " fill="#F074BC" transform="translate(42,110)"/>
<path d="M0 0 C0.33 0.99 0.66 1.98 1 3 C-0.2065625 3.8971875 -0.2065625 3.8971875 -1.4375 4.8125 C-6.33410275 8.87366342 -10.06674527 14.03782334 -14 19 C-17.03846798 22.83145316 -20.09371889 26.01889073 -24 29 C-25.0173873 29.98230498 -26.02596117 30.97469597 -27 32 C-27.8125 30.3125 -27.8125 30.3125 -28 28 C-26.39294136 26.27578479 -24.71285147 24.61916503 -23 23 C-21.67391724 21.67391724 -21.67391724 21.67391724 -20.32104492 20.32104492 C-13.54736328 13.54736328 -6.77368164 6.77368164 0 0 Z " fill="#6E3BD2" transform="translate(92,98)"/>
<path d="M0 0 C3.8263442 1.55888097 6.14637496 4.07127956 9 7 C9.66 7.33 10.32 7.66 11 8 C11 8.66 11 9.32 11 10 C11.70125 10.268125 12.4025 10.53625 13.125 10.8125 C16 12 16 12 18.875 13.5625 C22.29312731 15.13483856 25.27341329 15.62734133 29 16 C29 15.34 29 14.68 29 14 C29.721875 13.773125 30.44375 13.54625 31.1875 13.3125 C35.64793636 11.23096303 38.30210504 8.04684244 41 4 C41.99 4.33 42.98 4.66 44 5 C39.53019758 11.05586135 34.16724231 15.52410168 27 18.0625 C17.14814097 17.85725294 11.15119764 12.21647417 4 6 C3.23300781 5.4740625 2.46601562 4.948125 1.67578125 4.40625 C1.12277344 3.9421875 0.56976563 3.478125 0 3 C0 2.01 0 1.02 0 0 Z " fill="#AF48E4" transform="translate(75,187)"/>
<path d="M0 0 C8.16584132 3.48592218 14.04552384 9.58943631 20 16 C17 16 17 16 15.0546875 14.20703125 C14.33539063 13.41683594 13.61609375 12.62664062 12.875 11.8125 C7.7713752 6.56802841 2.9574065 2.27771274 -4.5625 1.75 C-9.42953685 3.51983158 -12.35334043 6.39876146 -16 10 C-16.88945312 10.82886719 -17.77890625 11.65773438 -18.6953125 12.51171875 C-24.63489027 17.75483604 -24.63489027 17.75483604 -27 25 C-27.99 24.34 -28.98 23.68 -30 23 C-28.55746981 19.70107633 -26.76125339 17.50408339 -24.2265625 14.9609375 C-23.4840625 14.21585938 -22.7415625 13.47078125 -21.9765625 12.703125 C-21.20054687 11.93484375 -20.42453125 11.1665625 -19.625 10.375 C-18.85671875 9.59898438 -18.0884375 8.82296875 -17.296875 8.0234375 C-16.55179688 7.2809375 -15.80671875 6.5384375 -15.0390625 5.7734375 C-14.02126709 4.75902588 -14.02126709 4.75902588 -12.98291016 3.72412109 C-8.81982244 0.10435682 -5.51088113 -0.71108144 0 0 Z " fill="#49A7C5" transform="translate(182,114)"/>
<path d="M0 0 C0.33 0 0.66 0 1 0 C1 8.91 1 17.82 1 27 C-3.08602467 24.5483852 -5.58072612 22.64074474 -8.8125 19.3125 C-9.60269531 18.50425781 -10.39289063 17.69601563 -11.20703125 16.86328125 C-11.79871094 16.24839844 -12.39039063 15.63351563 -13 15 C-12.34 14.67 -11.68 14.34 -11 14 C-8.32914351 14.91810692 -7.24226911 15.55583997 -5.875 18.0625 C-5.58625 18.701875 -5.2975 19.34125 -5 20 C-4.34 20.33 -3.68 20.66 -3 21 C-2.09706984 17.61401191 -1.98388118 14.5374519 -2.0625 11.0625 C-2.11737175 6.98370007 -1.60207711 3.80493313 0 0 Z " fill="#4B75D2" transform="translate(215,100)"/>
<path d="M0 0 C0.66 0.99 1.32 1.98 2 3 C0.47005208 4.20442708 -1.05989583 5.40885417 -2.58984375 6.61328125 C-4.27155077 8.05683091 -4.27155077 8.05683091 -5 11 C-6.0828125 11.3403125 -6.0828125 11.3403125 -7.1875 11.6875 C-10.84132138 13.39261664 -12.16565454 15.71186842 -14.44140625 18.95703125 C-16.63449645 21.83168331 -19.13235386 23.81512675 -22 26 C-22.33 25.01 -22.66 24.02 -23 23 C-15.41 15.41 -7.82 7.82 0 0 Z " fill="#4A56D9" transform="translate(152,176)"/>
<path d="M0 0 C5.46017628 3.79385545 10.12834888 8.00031102 14.76171875 12.76171875 C16.86977834 14.86977834 19.04366052 16.8179085 21.3125 18.75 C24.2532225 21.26810369 26.71198828 23.85398388 29 27 C23.39059661 25.72513559 22.07785699 23.66642834 19 19 C17.33805547 18.64386903 15.671549 18.30791692 14 18 C13.27095914 16.35965807 12.61344757 14.68698082 12 13 C8.76680344 9.39729526 5.11191594 6.36762503 1.35546875 3.33203125 C0.90816406 2.89246094 0.46085937 2.45289063 0 2 C0 1.34 0 0.68 0 0 Z " fill="#AD42DF" transform="translate(93,153)"/>
<path d="M0 0 C0.33 0 0.66 0 1 0 C1.02918874 3.70831663 1.04686218 7.41660342 1.0625 11.125 C1.07087891 12.17171875 1.07925781 13.2184375 1.08789062 14.296875 C1.10375207 19.3090905 1.08177213 24.07665912 0 29 C-0.66 29 -1.32 29 -2 29 C-2.0580772 24.91672643 -2.09362249 20.83355917 -2.125 16.75 C-2.14175781 15.59113281 -2.15851563 14.43226562 -2.17578125 13.23828125 C-2.18222656 12.12324219 -2.18867188 11.00820312 -2.1953125 9.859375 C-2.20578613 8.83295898 -2.21625977 7.80654297 -2.22705078 6.74902344 C-1.99836111 3.98015712 -1.4243299 2.35581208 0 0 Z " fill="#5457CF" transform="translate(215,76)"/>
<path d="M0 0 C0 3 0 3 -1.35766602 4.68237305 C-2.29630493 5.58789917 -2.29630493 5.58789917 -3.25390625 6.51171875 C-4.2893457 7.52588867 -4.2893457 7.52588867 -5.34570312 8.56054688 C-6.07724609 9.26244141 -6.80878906 9.96433594 -7.5625 10.6875 C-12.42665277 15.40034336 -17.12670305 20.14515871 -21.52734375 25.2980957 C-23.25816603 27.29835467 -25.09218786 29.16850034 -27 31 C-27.66 30.67 -28.32 30.34 -29 30 C-19.56789241 19.75402797 -9.90963335 9.784722 0 0 Z " fill="#4C2DC3" transform="translate(196,47)"/>
<path d="M0 0 C0.33 0.66 0.66 1.32 1 2 C-1 5 -1 5 -2.875 5.375 C-6.01089273 6.29732139 -7.14369669 8.41443468 -9 11 C-6.36 11.66 -3.72 12.32 -1 13 C-0.67 14.32 -0.34 15.64 0 17 C-4.8274799 15.58707905 -8.7162359 13.57025846 -13 11 C-11.74355639 7.23066918 -10.21492096 6.26505795 -7 4 C-5.34416775 3.30686092 -3.67889021 2.63525576 -2 2 C-1.34 1.34 -0.68 0.68 0 0 Z " fill="#4D8EE3" transform="translate(92,238)"/>
<path d="M0 0 C2 0 2 0 4.3125 2.0625 C11.26555471 9.6623505 14.18807156 16.16637153 14.6875 26.5 C14.73455078 27.23347656 14.78160156 27.96695313 14.83007812 28.72265625 C15.06218036 32.97659551 14.88384475 36.80007609 14 41 C13.67 41 13.34 41 13 41 C12.99589111 40.38592285 12.99178223 39.7718457 12.98754883 39.13916016 C13.37197949 21.91733385 13.37197949 21.91733385 5.40625 7.37890625 C3.66377133 5.82721391 3.66377133 5.82721391 1 4 C0.34 3.34 -0.32 2.68 -1 2 C-0.67 1.34 -0.34 0.68 0 0 Z " fill="#533CBE" transform="translate(201,40)"/>
<path d="M0 0 C3.75180831 1.70236236 6.39511164 4.00252547 9.4140625 6.7578125 C10.92666909 8.20554064 10.92666909 8.20554064 13 8 C13.433125 8.72832031 13.86625 9.45664063 14.3125 10.20703125 C16.19589452 13.32422357 18.26724799 15.29227539 21 17.6875 C21.86625 18.45449219 22.7325 19.22148437 23.625 20.01171875 C26.03124058 22.09939082 26.03124058 22.09939082 29 24 C29 24.66 29 25.32 29 26 C25.07663645 24.38394787 22.28557216 21.68706198 19.25 18.8125 C18.18176395 17.81427485 17.11275236 16.81687898 16.04296875 15.8203125 C15.52395996 15.33594727 15.00495117 14.85158203 14.47021484 14.35253906 C12.54351603 12.58005294 10.55755716 10.88234856 8.5625 9.1875 C5.3104279 6.37673205 2.64318774 3.38658429 0 0 Z " fill="#39D0C3" transform="translate(174,155)"/>
<path d="M0 0 C5.61313023 0.23611638 8.53863022 3.91038581 12.3125 7.625 C13.64223403 8.9046807 14.97295444 10.18333727 16.3046875 11.4609375 C16.93987305 12.07420898 17.57505859 12.68748047 18.22949219 13.31933594 C20.97507214 15.92559247 23.8565228 18.35951348 26.77734375 20.765625 C28 22 28 22 28 24 C26.68 24 25.36 24 24 24 C23.90589844 23.40574219 23.81179687 22.81148437 23.71484375 22.19921875 C22.83314374 19.48666626 21.76101889 18.6040496 19.5625 16.8125 C16.24574285 14.04455878 13.00768782 11.2206949 9.8125 8.3125 C6.62870953 5.41674227 3.38252696 2.66156207 0 0 Z " fill="#3C46D5" transform="translate(174,159)"/>
<path d="M0 0 C10.23424781 4.57224497 18.86442457 14.40395662 27 22 C23.59082059 22 23.23315187 21.65802802 20.78515625 19.515625 C20.18123047 18.99226563 19.57730469 18.46890625 18.95507812 17.9296875 C18.33052734 17.37539062 17.70597656 16.82109375 17.0625 16.25 C16.44181641 15.71117187 15.82113281 15.17234375 15.18164062 14.6171875 C12.60454146 12.36668557 10.10144953 10.10230781 7.69140625 7.671875 C6.08026554 5.89360876 6.08026554 5.89360876 3.875 5 C1.50808239 3.73764394 0.9777758 2.44443949 0 0 Z " fill="#F15CCB" transform="translate(61,127)"/>
<path d="M0 0 C3.7073348 1.56915101 6.20891864 3.87895254 9.125 6.625 C13.64024108 10.81815794 18.28673494 14.67795746 23.19921875 18.40625 C23.79347656 18.9321875 24.38773438 19.458125 25 20 C25 20.66 25 21.32 25 22 C21.07661243 20.38393798 18.28564325 17.68702695 15.25 14.8125 C14.18695067 13.81950603 13.12314651 12.82731953 12.05859375 11.8359375 C11.54022949 11.3522168 11.02186523 10.86849609 10.48779297 10.37011719 C7.86369491 7.95357004 5.14776734 5.64479677 2.42578125 3.33984375 C1 2 1 2 0 0 Z " fill="#4823D3" transform="translate(66,129)"/>
<path d="M0 0 C0.99 0.33 1.98 0.66 3 1 C-1.47288709 7.06004058 -6.89647713 11.81629148 -14.25 13.9375 C-17.00900538 14.00020467 -19.33645191 13.70505685 -22 13 C-22 12.67 -22 12.34 -22 12 C-18.7 12 -15.4 12 -12 12 C-12 11.34 -12 10.68 -12 10 C-10.9171875 9.6596875 -10.9171875 9.6596875 -9.8125 9.3125 C-5.35206364 7.23096303 -2.69789496 4.04684244 0 0 Z " fill="#9F47E5" transform="translate(116,191)"/>
<path d="M0 0 C3.76 1.504 3.76 1.504 4.9375 3.9375 C6.37328441 6.72461091 8.33049309 7.41100779 11 9 C13.3125 11.6875 13.3125 11.6875 15 14 C10.9478712 14 9.90894621 12.49511638 6.9375 9.8125 C6.05964844 9.03519531 5.18179688 8.25789062 4.27734375 7.45703125 C2.00774254 5.00835344 0.99206097 3.15553857 0 0 Z " fill="#E265C4" transform="translate(40,156)"/>
<path d="M0 0 C4.62 0 9.24 0 14 0 C14 0.66 14 1.32 14 2 C16.97 2 19.94 2 23 2 C23 2.33 23 2.66 23 3 C15.05042008 3.22428282 7.72888819 2.95403042 0 1 C0 0.67 0 0.34 0 0 Z " fill="#4A80DD" transform="translate(93,255)"/>
<path d="M0 0 C0.33 0 0.66 0 1 0 C1 4.95 1 9.9 1 15 C0.01 15.33 -0.98 15.66 -2 16 C-2.20413361 10.26157749 -2.27141454 5.39460953 0 0 Z " fill="#526ED3" transform="translate(215,100)"/>
<path d="M0 0 C0.66 0.66 1.32 1.32 2 2 C-3.94 7.445 -3.94 7.445 -10 13 C-10.66 12.67 -11.32 12.34 -12 12 C-8.04 8.04 -4.08 4.08 0 0 Z " fill="#4C7ADB" transform="translate(99,229)"/>
<path d="M0 0 C0.66 0.33 1.32 0.66 2 1 C-2.29 5.29 -6.58 9.58 -11 14 C-11.33 13.34 -11.66 12.68 -12 12 C-11 9 -11 9 -9 7.9375 C-8.34 7.628125 -7.68 7.31875 -7 7 C-6.67 6.34 -6.34 5.68 -6 5 C-5.34 5 -4.68 5 -4 5 C-4 4.34 -4 3.68 -4 3 C-2 1.375 -2 1.375 0 0 Z " fill="#6E40D4" transform="translate(126,117)"/>
<path d="M0 0 C-3.03987985 2.02658657 -4.50233128 2.36406023 -8 3 C-10.33762223 3.65146849 -12.67190457 4.31526605 -15 5 C-14 2 -14 2 -12.36328125 1.015625 C-7.83755921 -0.67397789 -4.81896529 -1.32521546 0 0 Z " fill="#963FEC" transform="translate(171,32)"/>
<path d="M0 0 C0.99 0 1.98 0 3 0 C3 0.66 3 1.32 3 2 C3.61875 2.268125 4.2375 2.53625 4.875 2.8125 C7 4 7 4 9 7 C8.484375 6.649375 7.96875 6.29875 7.4375 5.9375 C4.05993333 4.6384359 1.49531943 5.32782319 -2 6 C-1.34 4.02 -0.68 2.04 0 0 Z " fill="#E974BC" transform="translate(42,110)"/>
<path d="M0 0 C2 0 2 0 4.4375 2.1875 C6.72379957 4.69685318 8.38777619 7.03011404 10 10 C5.70281759 8.09014115 2.3108493 5.3108493 -1 2 C-0.67 1.34 -0.34 0.68 0 0 Z " fill="#6036C3" transform="translate(201,40)"/>
<path d="M0 0 C0.66 0.33 1.32 0.66 2 1 C0.90344712 2.31886772 -0.20253423 3.62990057 -1.3125 4.9375 C-1.92738281 5.66839844 -2.54226562 6.39929688 -3.17578125 7.15234375 C-5 9 -5 9 -8 10 C-8 9.01 -8 8.02 -8 7 C-7.34 7 -6.68 7 -6 7 C-6 6.34 -6 5.68 -6 5 C-5.195625 4.731875 -4.39125 4.46375 -3.5625 4.1875 C-2.716875 3.795625 -1.87125 3.40375 -1 3 C-0.67 2.01 -0.34 1.02 0 0 Z " fill="#9138F0" transform="translate(171,70)"/>
<path d="M0 0 C0.33 0.66 0.66 1.32 1 2 C-1.2370804 5.3556206 -1.42517038 5.19278041 -5 6 C-5.33 6.66 -5.66 7.32 -6 8 C-6.99 8 -7.98 8 -9 8 C-8.3125 6.125 -8.3125 6.125 -7 4 C-4.5 2.875 -4.5 2.875 -2 2 C-1.34 1.34 -0.68 0.68 0 0 Z " fill="#4783E5" transform="translate(92,238)"/>
<path d="M0 0 C0.99 0.66 1.98 1.32 3 2 C2.01 3.485 2.01 3.485 1 5 C0.34 5 -0.32 5 -1 5 C-1 5.66 -1 6.32 -1 7 C-1.66 7 -2.32 7 -3 7 C-3 7.66 -3 8.32 -3 9 C-3.66 9 -4.32 9 -5 9 C-4.67 7.68 -4.34 6.36 -4 5 C-3.34 5 -2.68 5 -2 5 C-1.34 3.35 -0.68 1.7 0 0 Z " fill="#3F5CCE" transform="translate(197,182)"/>
<path d="M0 0 C2 2 2 2 2.1953125 4.3828125 C2.17210937 5.28773437 2.14890625 6.19265625 2.125 7.125 C2.10695312 8.03507812 2.08890625 8.94515625 2.0703125 9.8828125 C2.04710937 10.58148438 2.02390625 11.28015625 2 12 C0.68 11.34 -0.64 10.68 -2 10 C-2 9.34 -2 8.68 -2 8 C-1.34 8 -0.68 8 0 8 C0 5.36 0 2.72 0 0 Z " fill="#517ED0" transform="translate(214,115)"/>
<path d="M0 0 C3.82675111 1.55904675 6.18007783 4.03166087 9 7 C9.66 7.66 10.32 8.32 11 9 C5.95030484 8.55443866 3.52381313 6.44186399 0 3 C0 2.01 0 1.02 0 0 Z " fill="#C349E3" transform="translate(75,187)"/>
<path d="M0 0 C-0.17625835 2.37948772 -0.69719773 3.70225849 -2.40234375 5.37890625 C-3.90649092 6.62115486 -5.45129851 7.81376056 -7 9 C-4.4 0 -4.4 0 0 0 Z " fill="#7D43DF" transform="translate(144,99)"/>
<path d="M0 0 C2.475 0.495 2.475 0.495 5 1 C4.67 1.99 4.34 2.98 4 4 C3.34 4 2.68 4 2 4 C1.67 4.99 1.34 5.98 1 7 C0.67 7 0.34 7 0 7 C0 4.69 0 2.38 0 0 Z " fill="#8440E5" transform="translate(147,91)"/>
<path d="M0 0 C3.2542015 2.83430453 4.5206753 4.68607774 5 9 C4.01 9.495 4.01 9.495 3 10 C0.96564469 6.27034861 0 4.33094958 0 0 Z " fill="#EE69C0" transform="translate(36,146)"/>
<path d="M0 0 C3.7952131 1.49097658 5.61042731 3.75700849 8 7 C7.01 7 6.02 7 5 7 C3.61328125 5.46875 3.61328125 5.46875 2.3125 3.5 C1.87550781 2.8503125 1.43851563 2.200625 0.98828125 1.53125 C0.49908203 0.77328125 0.49908203 0.77328125 0 0 Z " fill="#E75CCE" transform="translate(47,163)"/>
<path d="M0 0 C3.36720387 1.39332574 4.9859524 2.9789286 7 6 C4 6 4 6 1.8125 4.125 C0 2 0 2 0 0 Z " fill="#5151C5" transform="translate(180,91)"/>
<path d="M0 0 C0.33 0.66 0.66 1.32 1 2 C0.34 1.67 -0.32 1.34 -1 1 C-0.67 0.67 -0.34 0.34 0 0 Z " fill="#414445" transform="translate(357,187)"/>
<path d="M0 0 C3 1 3 1 3 1 Z " fill="#78777A" transform="translate(803,171)"/>
<path d="" fill="#777778" transform="translate(0,0)"/>
<path d="" fill="#353738" transform="translate(0,0)"/>
<path d="M0 0 C3 1 3 1 3 1 Z " fill="#333233" transform="translate(790,146)"/>
<path d="M0 0 C0.66 0.66 1.32 1.32 2 2 C1.34 2 0.68 2 0 2 C0 1.34 0 0.68 0 0 Z " fill="#343537" transform="translate(416,132)"/>
<path d="M0 0 C0.99 0.495 0.99 0.495 2 1 C1.01 1.495 1.01 1.495 0 2 C0 1.34 0 0.68 0 0 Z " fill="#343435" transform="translate(805,111)"/>
<path d="M0 0 C2 1 2 1 2 1 Z " fill="#3B3A3B" transform="translate(604,192)"/>
<path d="M0 0 C2 1 2 1 2 1 Z " fill="#3C3B3C" transform="translate(598,191)"/>
<path d="M0 0 C2 1 2 1 2 1 Z " fill="#9A989A" transform="translate(459,171)"/>
<path d="" fill="#38393B" transform="translate(0,0)"/>
<path d="M0 0 C2 1 2 1 2 1 Z " fill="#62ADD2" transform="translate(151,138)"/>
<path d="M0 0 C2 1 2 1 2 1 Z " fill="#323234" transform="translate(500,130)"/>
<path d="M0 0 C2 1 2 1 2 1 Z " fill="#323334" transform="translate(502,129)"/>
<path d="" fill="#99989A" transform="translate(0,0)"/>
<path d="M0 0 C2 1 2 1 2 1 Z " fill="#38393B" transform="translate(736,91)"/>
<path d="M0 0 C2 1 2 1 2 1 Z " fill="#8B5ADC" transform="translate(197,35)"/>
<path d="" fill="#5D88DA" transform="translate(0,0)"/>
<path d="" fill="#7292DB" transform="translate(0,0)"/>
<path d="" fill="#6C8FE1" transform="translate(0,0)"/>
<path d="" fill="#3D3E3E" transform="translate(0,0)"/>
<path d="" fill="#46494D" transform="translate(0,0)"/>
<path d="" fill="#3D3B3D" transform="translate(0,0)"/>
<path d="" fill="#FFFFFF" transform="translate(0,0)"/>
<path d="" fill="#393B3C" transform="translate(0,0)"/>
<path d="" fill="#3D3D3E" transform="translate(0,0)"/>
<path d="" fill="#FFFFFF" transform="translate(0,0)"/>
<path d="" fill="#3D3F3E" transform="translate(0,0)"/>
<path d="" fill="#444C4F" transform="translate(0,0)"/>
<path d="" fill="#FFFFFF" transform="translate(0,0)"/>
<path d="" fill="#454B4C" transform="translate(0,0)"/>
<path d="" fill="#3D3C3B" transform="translate(0,0)"/>
<path d="" fill="#454948" transform="translate(0,0)"/>
<path d="" fill="#3B3C3C" transform="translate(0,0)"/>
<path d="" fill="#3C3B3E" transform="translate(0,0)"/>
<path d="" fill="#4AA2CA" transform="translate(0,0)"/>
<path d="" fill="#FFFFFF" transform="translate(0,0)"/>
<path d="" fill="#39393C" transform="translate(0,0)"/>
<path d="" fill="#373638" transform="translate(0,0)"/>
<path d="" fill="#363639" transform="translate(0,0)"/>
<path d="" fill="#323535" transform="translate(0,0)"/>
<path d="" fill="#FFFFFF" transform="translate(0,0)"/>
<path d="" fill="#383838" transform="translate(0,0)"/>
<path d="" fill="#373738" transform="translate(0,0)"/>
<path d="" fill="#383737" transform="translate(0,0)"/>
<path d="" fill="#373838" transform="translate(0,0)"/>
<path d="" fill="#3A383B" transform="translate(0,0)"/>
<path d="" fill="#363537" transform="translate(0,0)"/>
<path d="" fill="#393B3A" transform="translate(0,0)"/>
<path d="" fill="#323537" transform="translate(0,0)"/>
<path d="" fill="#FFFFFF" transform="translate(0,0)"/>
<path d="" fill="#FFFFFF" transform="translate(0,0)"/>
<path d="" fill="#363736" transform="translate(0,0)"/>
<path d="" fill="#363637" transform="translate(0,0)"/>
<path d="" fill="#343435" transform="translate(0,0)"/>
<path d="" fill="#FFFFFF" transform="translate(0,0)"/>
<path d="" fill="#FFFFFF" transform="translate(0,0)"/>
<path d="" fill="#353636" transform="translate(0,0)"/>
<path d="" fill="#FFFFFF" transform="translate(0,0)"/>
<path d="" fill="#333338" transform="translate(0,0)"/>
<path d="" fill="#343536" transform="translate(0,0)"/>
<path d="" fill="#FFFFFF" transform="translate(0,0)"/>
<path d="" fill="#353439" transform="translate(0,0)"/>
<path d="" fill="#363738" transform="translate(0,0)"/>
<path d="" fill="#363635" transform="translate(0,0)"/>
<path d="" fill="#333337" transform="translate(0,0)"/>
<path d="" fill="#34373A" transform="translate(0,0)"/>
<path d="" fill="#343335" transform="translate(0,0)"/>
<path d="" fill="#323134" transform="translate(0,0)"/>
<path d="" fill="#363539" transform="translate(0,0)"/>
<path d="" fill="#313134" transform="translate(0,0)"/>
<path d="" fill="#67AED6" transform="translate(0,0)"/>
<path d="" fill="#383B3D" transform="translate(0,0)"/>
<path d="" fill="#363638" transform="translate(0,0)"/>
<path d="" fill="#333438" transform="translate(0,0)"/>
<path d="" fill="#383839" transform="translate(0,0)"/>
<path d="" fill="#37383A" transform="translate(0,0)"/>
<path d="" fill="#FFFFFF" transform="translate(0,0)"/>
<path d="" fill="#313335" transform="translate(0,0)"/>
<path d="" fill="#313332" transform="translate(0,0)"/>
<path d="" fill="#434C51" transform="translate(0,0)"/>
<path d="" fill="#313232" transform="translate(0,0)"/>
<path d="" fill="#353536" transform="translate(0,0)"/>
<path d="" fill="#333034" transform="translate(0,0)"/>
<path d="" fill="#333234" transform="translate(0,0)"/>
<path d="" fill="#323334" transform="translate(0,0)"/>
<path d="" fill="#353535" transform="translate(0,0)"/>
<path d="" fill="#323234" transform="translate(0,0)"/>
<path d="" fill="#FFFFFF" transform="translate(0,0)"/>
<path d="" fill="#FFFFFF" transform="translate(0,0)"/>
<path d="" fill="#333435" transform="translate(0,0)"/>
<path d="" fill="#343336" transform="translate(0,0)"/>
<path d="" fill="#373737" transform="translate(0,0)"/>
<path d="" fill="#373538" transform="translate(0,0)"/>
<path d="" fill="#333336" transform="translate(0,0)"/>
<path d="" fill="#353636" transform="translate(0,0)"/>
<path d="" fill="#373738" transform="translate(0,0)"/>
<path d="" fill="#5791D3" transform="translate(0,0)"/>
<path d="" fill="#343536" transform="translate(0,0)"/>
<path d="" fill="#363837" transform="translate(0,0)"/>
<path d="" fill="#363638" transform="translate(0,0)"/>
<path d="" fill="#373738" transform="translate(0,0)"/>
<path d="" fill="#FFFFFF" transform="translate(0,0)"/>
<path d="" fill="#313134" transform="translate(0,0)"/>
<path d="" fill="#FFFFFF" transform="translate(0,0)"/>
<path d="" fill="#FFFFFF" transform="translate(0,0)"/>
<path d="" fill="#373738" transform="translate(0,0)"/>
<path d="" fill="#373739" transform="translate(0,0)"/>
<path d="" fill="#FFFFFF" transform="translate(0,0)"/>
<path d="" fill="#FFFFFF" transform="translate(0,0)"/>
<path d="" fill="#363538" transform="translate(0,0)"/>
<path d="" fill="#363635" transform="translate(0,0)"/>
<path d="" fill="#393838" transform="translate(0,0)"/>
<path d="" fill="#FFFFFF" transform="translate(0,0)"/>
<path d="" fill="#3C3C3E" transform="translate(0,0)"/>
<path d="" fill="#373738" transform="translate(0,0)"/>
<path d="" fill="#FFFFFF" transform="translate(0,0)"/>
<path d="" fill="#FFFFFF" transform="translate(0,0)"/>
<path d="" fill="#FFFFFF" transform="translate(0,0)"/>
<path d="" fill="#FFFFFF" transform="translate(0,0)"/>
<path d="" fill="#39373A" transform="translate(0,0)"/>
<path d="" fill="#FFFFFF" transform="translate(0,0)"/>
<path d="" fill="#3A3A3B" transform="translate(0,0)"/>
<path d="" fill="#39373A" transform="translate(0,0)"/>
<path d="" fill="#606FCE" transform="translate(0,0)"/>
<path d="" fill="#3B3B3C" transform="translate(0,0)"/>
<path d="" fill="#3B3B3E" transform="translate(0,0)"/>
<path d="" fill="#3E4042" transform="translate(0,0)"/>
<path d="" fill="#37393B" transform="translate(0,0)"/>
<path d="" fill="#3A3A3C" transform="translate(0,0)"/>
<path d="" fill="#3A3A3B" transform="translate(0,0)"/>
<path d="" fill="#7263D6" transform="translate(0,0)"/>
<path d="" fill="#7D57DC" transform="translate(0,0)"/>
<path d="" fill="#9D5EE2" transform="translate(0,0)"/>
<path d="" fill="#9B5CE2" transform="translate(0,0)"/>
</svg>
